HIERARCHY
ROOT Root
{
	OFFSET 0.00000 0.00000 0.00000
	CHANNELS 6 Xposition Yposition Zposition Zrotation Xrotation Yrotation
	JOINT Hip
	{
		OFFSET 0 0 0	
		CHANNELS 3 Zrotation Xrotation Yrotation
		JOINT Tummy
		{
			OFFSET 0 0.04 0	
			CHANNELS 3 Zrotation Xrotation Yrotation
			JOINT ChestBottom
			{
				OFFSET 0 0.194 0	
				CHANNELS 3 Zrotation Xrotation Yrotation
				JOINT ChestTop
				{
					OFFSET 0 0.166 0	
					CHANNELS 3 Zrotation Xrotation Yrotation
					JOINT LeftCollar
					{
						OFFSET 0 0.1 0	
						CHANNELS 3 Zrotation Xrotation Yrotation
						JOINT LeftUpperArm
						{
							OFFSET 0.156 -0.02 0.03	
							CHANNELS 3 Zrotation Xrotation Yrotation
							JOINT LeftForeArm
							{
								OFFSET 0.035 -0.27 -0.01	
								CHANNELS 3 Zrotation Xrotation Yrotation
								JOINT LeftHand
								{
									OFFSET 0.01 -0.27 0.01	
									CHANNELS 3 Zrotation Xrotation Yrotation
									End Site
									{
										OFFSET 0 -0.15 0
									}
								}
							}
						}
					}
					JOINT RightCollar
					{
						OFFSET 0 0.1 0	
						CHANNELS 3 Zrotation Xrotation Yrotation
						JOINT RightUpperArm
						{
							OFFSET -0.156 -0.02 0.03	
							CHANNELS 3 Zrotation Xrotation Yrotation
							JOINT RightForeArm
							{
								OFFSET -0.035 -0.27 -0.01	
								CHANNELS 3 Zrotation Xrotation Yrotation
								JOINT RightHand
								{
									OFFSET -0.01 -0.27 0.01	
									CHANNELS 3 Zrotation Xrotation Yrotation
									End Site
									{
										OFFSET 0 -0.15 0
									}
								}
							}
						}
					}
					JOINT Neck
					{
						OFFSET 0 0.1 0	
						CHANNELS 3 Zrotation Xrotation Yrotation
						JOINT Head
						{
							OFFSET 0 0.127 0.03	
							CHANNELS 3 Zrotation Xrotation Yrotation
							End Site
							{
								OFFSET 0 0.127 0.03
							}
						}
					}
				}
			}
		}
	}
	JOINT LeftHip
	{
		OFFSET 0 0 0	
		CHANNELS 3 Zrotation Xrotation Yrotation
		JOINT LeftThigh
		{
			OFFSET 0.088 -0.06 0	
			CHANNELS 3 Zrotation Xrotation Yrotation
			JOINT LeftLowerLeg
			{
				OFFSET 0 -0.39 0.02	
				CHANNELS 3 Zrotation Xrotation Yrotation
				JOINT LeftFootTop
				{
					OFFSET 0 -0.43 -0.02	
					CHANNELS 3 Zrotation Xrotation Yrotation
					JOINT LeftFootFront
					{
						OFFSET 0 -0.07 0.085	
						CHANNELS 3 Zrotation Xrotation Yrotation
						End Site
						{
							OFFSET 0 -0.005 0.09
						}
					}
				}
				JOINT LeftHeel
				{
					OFFSET 0 -0.43 -0.02	
					CHANNELS 3 Zrotation Xrotation Yrotation
					End Site
					{
						OFFSET 0 -0.075 -0.05
					}
				}
			}
		}
	}
	JOINT RightHip
	{
		OFFSET 0 0 0	
		CHANNELS 3 Zrotation Xrotation Yrotation
		JOINT RightThigh
		{
			OFFSET -0.088 -0.06 0	
			CHANNELS 3 Zrotation Xrotation Yrotation
			JOINT RightLowerLeg
			{
				OFFSET 0 -0.39 0.02	
				CHANNELS 3 Zrotation Xrotation Yrotation
				JOINT RightFootTop
				{
					OFFSET 0 -0.43 -0.02	
					CHANNELS 3 Zrotation Xrotation Yrotation
					JOINT RightFootFront
					{
						OFFSET 0 -0.07 0.085	
						CHANNELS 3 Zrotation Xrotation Yrotation
						End Site
						{
							OFFSET 0 -0.005 0.09
						}
					}
				}
				JOINT RightHeel
				{
					OFFSET 0 -0.43 -0.02	
					CHANNELS 3 Zrotation Xrotation Yrotation
					End Site
					{
						OFFSET 0 -0.075 -0.05
					}
				}
			}
		}
	}
}
MOTION
Frames: 11
Frame Time: 0.05
0 0.95795 0 -0 0 -0 -1.4229 4.8986 -0.44692 0.53198 1.5775 0.33636 0.53198 1.5775 0.33636 0.44747 1.3249 0.28351 -0 0 -0 1.4833 -0.8469 -6.2331 1.7911 1.2248 -16.949 -0 0 -0 -0 0 -0 1.0184 -12.86 -18.058 -6.4326 3.7322 19.598 -0 0 -0 -2.1245 5.3158 1.399 -1.7085 6.6292 1.7336 -1.4229 4.8986 -0.44692 0.35732 -4.5439 1.3187 -0 0 -0 -0 0 -0 -0 0 -0 -0 0 -0 -1.4229 4.8986 -0.44692 1.4658 -4.2427 -1.5122 -0 0 -0 -0 0 -0 -0 0 -0 -0 0 -0 
0 0.95795 0 -0 0 -0 -1.449 4.8958 -0.40353 0.54519 1.6007 0.30536 0.54519 1.6007 0.30536 0.45851 1.3444 0.25752 -0 0 -0 1.4598 -0.89714 -6.1607 1.7834 1.2184 -16.947 -0 0 -0 -0 0 -0 1.0317 -12.921 -18.008 -6.4481 3.7057 19.579 -0 0 -0 -2.1528 5.276 1.4249 -1.7233 6.6097 1.7348 -1.449 4.8958 -0.40353 0.40426 -4.5693 1.2779 -0 0 -0 -0 0 -0 -0 0 -0 -0 0 -0 -1.449 4.8958 -0.40353 1.4808 -4.2504 -1.5506 -0 0 -0 -0 0 -0 -0 0 -0 -0 0 -0 
0 0.95795 0 -0 0 -0 -1.4663 4.8798 -0.35392 0.55388 1.6267 0.26306 0.55388 1.6267 0.26306 0.46574 1.3662 0.22202 -0 0 -0 1.4406 -0.94136 -6.0623 1.7878 1.2092 -16.954 -0 0 -0 -0 0 -0 1.0601 -12.968 -17.94 -6.4426 3.6897 19.613 -0 0 -0 -2.1727 5.2422 1.4795 -1.7327 6.599 1.7549 -1.4663 4.8798 -0.35392 0.44325 -4.5735 1.2277 -0 0 -0 -0 0 -0 -0 0 -0 -0 0 -0 -1.4663 4.8798 -0.35392 1.4877 -4.2441 -1.5965 -0 0 -0 -0 0 -0 -0 0 -0 -0 0 -0 
0 0.95795 0 -0 0 -0 -1.4822 4.8623 -0.30735 0.56639 1.6466 0.22753 0.56639 1.6466 0.22753 0.47618 1.383 0.19221 -0 0 -0 1.4086 -0.96775 -5.9745 1.8904 1.1804 -17.034 -0 0 -0 -0 0 -0 1.0874 -12.969 -17.937 -6.4322 3.6601 19.658 -0 0 -0 -2.1995 5.2171 1.5334 -1.7464 6.5917 1.7801 -1.4822 4.8623 -0.30735 0.47244 -4.5672 1.1665 -0 0 -0 -0 0 -0 -0 0 -0 -0 0 -0 -1.4822 4.8623 -0.30735 1.512 -4.2208 -1.647 -0 0 -0 -0 0 -0 -0 0 -0 -0 0 -0 
0 0.95795 0 -0 0 -0 -1.4986 4.8316 -0.26497 0.57084 1.6782 0.19619 0.57084 1.6782 0.19619 0.47987 1.4096 0.16592 -0 0 -0 1.3903 -1.0196 -5.9008 1.8286 1.1572 -16.968 -0 0 -0 -0 0 -0 1.0911 -13.035 -17.924 -6.4155 3.6996 19.7 -0 0 -0 -2.2142 5.1626 1.5814 -1.755 6.5647 1.803 -1.4986 4.8316 -0.26497 0.51028 -4.5463 1.1129 -0 0 -0 -0 0 -0 -0 0 -0 -0 0 -0 -1.4986 4.8316 -0.26497 1.5352 -4.1909 -1.6852 -0 0 -0 -0 0 -0 -0 0 -0 -0 0 -0 
0 0.95795 0 -0 0 -0 -1.5007 4.8131 -0.22867 0.55902 1.7133 0.16262 0.55902 1.7133 0.16262 0.46988 1.4391 0.13772 -0 0 -0 1.4084 -1.0993 -5.8271 1.7046 1.1495 -16.858 -0 0 -0 -0 0 -0 1.1303 -13.146 -17.883 -6.4352 3.7604 19.727 -0 0 -0 -2.2103 5.0841 1.6358 -1.7584 6.5168 1.8301 -1.5007 4.8131 -0.22867 0.54169 -4.5534 1.0642 -0 0 -0 -0 0 -0 -0 0 -0 -0 0 -0 -1.5007 4.8131 -0.22867 1.5372 -4.1745 -1.7115 -0 0 -0 -0 0 -0 -0 0 -0 -0 0 -0 
0 0.95795 0 -0 0 -0 -1.524 4.7866 -0.17783 0.56547 1.7306 0.12643 0.56547 1.7306 0.12643 0.47522 1.4537 0.10734 -0 0 -0 1.3958 -1.1235 -5.8008 1.3247 1.2992 -16.522 -0 0 -0 -0 0 -0 1.1483 -13.186 -17.83 -6.4813 3.7732 19.722 -0 0 -0 -2.2305 5.0508 1.6894 -1.7705 6.4992 1.8542 -1.524 4.7866 -0.17783 0.58002 -4.5586 1.0133 -0 0 -0 -0 0 -0 -0 0 -0 -0 0 -0 -1.524 4.7866 -0.17783 1.5579 -4.1509 -1.7519 -0 0 -0 -0 0 -0 -0 0 -0 -0 0 -0 
0 0.95795 0 -0 0 -0 -1.5168 4.7876 -0.15698 0.55343 1.7355 0.10516 0.55343 1.7355 0.10516 0.46507 1.4577 0.089457 -0 0 -0 1.3895 -1.1363 -5.7879 0.95621 1.3754 -16.171 -0 0 -0 -0 0 -0 1.1973 -13.19 -17.77 -6.5266 3.7259 19.667 -0 0 -0 -2.2289 5.0446 1.7304 -1.7775 6.4977 1.8774 -1.5168 4.7876 -0.15698 0.5913 -4.5741 0.99532 -0 0 -0 -0 0 -0 -0 0 -0 -0 0 -0 -1.5168 4.7876 -0.15698 1.5609 -4.1548 -1.7773 -0 0 -0 -0 0 -0 -0 0 -0 -0 0 -0 
0 0.95795 0 -0 0 -0 -1.521 4.788 -0.13008 0.54705 1.7401 0.081463 0.54705 1.7401 0.081463 0.45966 1.4616 0.069542 -0 0 -0 1.3879 -1.1555 -5.7499 1.0095 1.3437 -16.146 -0 0 -0 -0 0 -0 1.2669 -13.197 -17.737 -6.5853 3.6621 19.673 -0 0 -0 -2.2287 5.0429 1.7725 -1.7809 6.5007 1.8996 -1.521 4.788 -0.13008 0.62101 -4.6012 0.94627 -0 0 -0 -0 0 -0 -0 0 -0 -0 0 -0 -1.521 4.788 -0.13008 1.5822 -4.1579 -1.7957 -0 0 -0 -0 0 -0 -0 0 -0 -0 0 -0 
0 0.95795 0 -0 0 -0 -1.5335 4.764 -0.10075 0.55843 1.7536 0.057752 0.55843 1.7536 0.057752 0.46918 1.473 0.049658 -0 0 -0 1.3549 -1.1502 -5.7043 1.0438 1.2997 -16.168 -0 0 -0 -0 0 -0 1.2934 -13.189 -17.685 -6.6199 3.6132 19.644 -0 0 -0 -2.2715 5.0256 1.8268 -1.8126 6.4954 1.9355 -1.5335 4.764 -0.10075 0.65955 -4.598 0.91685 -0 0 -0 -0 0 -0 -0 0 -0 -0 0 -0 -1.5335 4.764 -0.10075 1.5921 -4.1479 -1.8159 -0 0 -0 -0 0 -0 -0 0 -0 -0 0 -0 
0 0.95795 0 -0 0 -0 -1.5351 4.7553 -0.084199 0.57256 1.7815 0.049479 0.57256 1.7815 0.049479 0.48103 1.4964 0.042757 -0 0 -0 1.3229 -1.1903 -5.7381 1.1253 1.2738 -16.14 -0 0 -0 -0 0 -0 1.2942 -13.218 -17.677 -6.6309 3.576 19.646 -0 0 -0 -2.2888 4.9703 1.8494 -1.8174 6.4638 1.9526 -1.5351 4.7553 -0.084199 0.67174 -4.6189 0.90312 -0 0 -0 -0 0 -0 -0 0 -0 -0 0 -0 -1.5351 4.7553 -0.084199 1.5972 -4.1445 -1.8175 -0 0 -0 -0 0 -0 -0 0 -0 -0 0 -0 
